<svg xmlns="http://www.w3.org/2000/svg" width="300" height="300" viewBox="0 0 300 300">
  <defs>
    <linearGradient id="brandGrad" x1="0%" y1="0%" x2="100%" y2="100%">
      <stop offset="0%" stop-color="#3d7ea6"/>
      <stop offset="100%" stop-color="#1a4a6e"/>
    </linearGradient>
  </defs>

  <!-- Rounded background -->
  <rect width="300" height="300" rx="56" ry="56" fill="url(#brandGrad)"/>

  <!-- QR code pattern (stylized) -->
  <!-- Top-left finder -->
  <rect x="42" y="42" width="70" height="70" rx="10" fill="#ffffff"/>
  <rect x="51" y="51" width="52" height="52" rx="6" fill="url(#brandGrad)"/>
  <rect x="63" y="63" width="28" height="28" rx="4" fill="#ffffff"/>

  <!-- Top-right finder -->
  <rect x="188" y="42" width="70" height="70" rx="10" fill="#ffffff"/>
  <rect x="197" y="51" width="52" height="52" rx="6" fill="url(#brandGrad)"/>
  <rect x="209" y="63" width="28" height="28" rx="4" fill="#ffffff"/>

  <!-- Bottom-left finder -->
  <rect x="42" y="188" width="70" height="70" rx="10" fill="#ffffff"/>
  <rect x="51" y="197" width="52" height="52" rx="6" fill="url(#brandGrad)"/>
  <rect x="63" y="209" width="28" height="28" rx="4" fill="#ffffff"/>

  <!-- Data modules (decorative dots) -->
  <rect x="131" y="47" width="21" height="21" rx="4" fill="rgba(255,255,255,0.85)"/>
  <rect x="131" y="77" width="21" height="21" rx="4" fill="rgba(255,255,255,0.5)"/>
  <rect x="160" y="47" width="21" height="21" rx="4" fill="rgba(255,255,255,0.5)"/>

  <rect x="47" y="131" width="21" height="21" rx="4" fill="rgba(255,255,255,0.85)"/>
  <rect x="77" y="131" width="21" height="21" rx="4" fill="rgba(255,255,255,0.5)"/>
  <rect x="47" y="160" width="21" height="21" rx="4" fill="rgba(255,255,255,0.5)"/>

  <rect x="131" y="131" width="21" height="21" rx="4" fill="rgba(255,255,255,0.9)"/>
  <rect x="160" y="131" width="21" height="21" rx="4" fill="rgba(255,255,255,0.45)"/>
  <rect x="131" y="160" width="21" height="21" rx="4" fill="rgba(255,255,255,0.45)"/>
  <rect x="160" y="160" width="21" height="21" rx="4" fill="rgba(255,255,255,0.7)"/>

  <rect x="199" y="131" width="21" height="21" rx="4" fill="rgba(255,255,255,0.5)"/>
  <rect x="230" y="131" width="21" height="21" rx="4" fill="rgba(255,255,255,0.85)"/>
  <rect x="199" y="160" width="21" height="21" rx="4" fill="rgba(255,255,255,0.7)"/>
  <rect x="230" y="160" width="21" height="21" rx="4" fill="rgba(255,255,255,0.45)"/>

  <rect x="131" y="199" width="21" height="21" rx="4" fill="rgba(255,255,255,0.5)"/>
  <rect x="160" y="199" width="21" height="21" rx="4" fill="rgba(255,255,255,0.85)"/>
  <rect x="131" y="230" width="21" height="21" rx="4" fill="rgba(255,255,255,0.7)"/>
  <rect x="160" y="230" width="21" height="21" rx="4" fill="rgba(255,255,255,0.45)"/>

  <!-- Bottom-right decorative cluster -->
  <rect x="199" y="199" width="21" height="21" rx="4" fill="rgba(255,255,255,0.85)"/>
  <rect x="230" y="199" width="21" height="21" rx="4" fill="rgba(255,255,255,0.6)"/>
  <rect x="199" y="230" width="21" height="21" rx="4" fill="rgba(255,255,255,0.45)"/>
  <rect x="230" y="230" width="21" height="21" rx="4" fill="rgba(255,255,255,0.9)"/>

  <!-- Scanner line -->
  <rect x="33" y="145" width="234" height="3" rx="1.5" fill="#ffffff" opacity="0.9"/>

  <!-- Corner brackets -->
  <path d="M33 58 L33 35 Q33 26 42 26 L58 26" fill="none" stroke="#ffffff" stroke-width="4" stroke-linecap="round" opacity="0.6"/>
  <path d="M242 26 L258 26 Q267 26 267 35 L267 58" fill="none" stroke="#ffffff" stroke-width="4" stroke-linecap="round" opacity="0.6"/>
  <path d="M33 242 L33 258 Q33 267 42 267 L58 267" fill="none" stroke="#ffffff" stroke-width="4" stroke-linecap="round" opacity="0.6"/>
  <path d="M242 267 L258 267 Q267 267 267 258 L267 242" fill="none" stroke="#ffffff" stroke-width="4" stroke-linecap="round" opacity="0.6"/>
</svg>
